<svg width="1600" height="1100" viewBox="0 0 1600 1100" fill="none" xmlns="http://www.w3.org/2000/svg">
  <rect width="1600" height="1100" rx="56" fill="url(#bg)"/>
  <rect x="72" y="72" width="1456" height="956" rx="42" fill="#0F172A"/>
  <rect x="72" y="72" width="1456" height="956" rx="42" stroke="rgba(255,255,255,0.08)"/>
  <rect x="120" y="118" width="1360" height="68" rx="24" fill="#16233A"/>
  <rect x="156" y="142" width="180" height="20" rx="10" fill="#67E8F9" fill-opacity="0.55"/>
  <rect x="1170" y="134" width="126" height="36" rx="18" fill="#1E293B"/>
  <rect x="1312" y="134" width="120" height="36" rx="18" fill="#134E4A"/>
  <rect x="120" y="226" width="824" height="732" rx="34" fill="#132033"/>
  <rect x="978" y="226" width="382" height="340" rx="34" fill="#132033"/>
  <rect x="978" y="592" width="382" height="366" rx="34" fill="#132033"/>

  <rect x="160" y="268" width="270" height="28" rx="14" fill="#E2E8F0" fill-opacity="0.18"/>
  <rect x="160" y="326" width="744" height="118" rx="26" fill="#0E1A2B"/>
  <rect x="184" y="350" width="84" height="70" rx="22" fill="#164E63"/>
  <rect x="294" y="356" width="268" height="18" rx="9" fill="#F8FAFC" fill-opacity="0.82"/>
  <rect x="294" y="388" width="398" height="14" rx="7" fill="#CBD5E1" fill-opacity="0.4"/>
  <rect x="744" y="352" width="118" height="40" rx="20" fill="#0F766E"/>

  <rect x="160" y="470" width="744" height="118" rx="26" fill="#0E1A2B"/>
  <rect x="184" y="494" width="84" height="70" rx="22" fill="#14532D"/>
  <rect x="294" y="500" width="252" height="18" rx="9" fill="#F8FAFC" fill-opacity="0.82"/>
  <rect x="294" y="532" width="370" height="14" rx="7" fill="#CBD5E1" fill-opacity="0.4"/>
  <rect x="726" y="496" width="136" height="40" rx="20" fill="#164E63"/>

  <rect x="160" y="614" width="744" height="118" rx="26" fill="#0E1A2B"/>
  <rect x="184" y="638" width="84" height="70" rx="22" fill="#3F3F46"/>
  <rect x="294" y="644" width="286" height="18" rx="9" fill="#F8FAFC" fill-opacity="0.82"/>
  <rect x="294" y="676" width="420" height="14" rx="7" fill="#CBD5E1" fill-opacity="0.4"/>
  <rect x="762" y="640" width="100" height="40" rx="20" fill="#0F766E"/>

  <rect x="160" y="758" width="744" height="160" rx="28" fill="#0E1A2B"/>
  <rect x="190" y="790" width="176" height="18" rx="9" fill="#67E8F9" fill-opacity="0.48"/>
  <rect x="190" y="832" width="684" height="20" rx="10" fill="#F8FAFC" fill-opacity="0.78"/>
  <rect x="190" y="872" width="584" height="16" rx="8" fill="#CBD5E1" fill-opacity="0.34"/>

  <rect x="1016" y="264" width="308" height="56" rx="22" fill="#0E1A2B"/>
  <rect x="1044" y="284" width="168" height="16" rx="8" fill="#E2E8F0" fill-opacity="0.22"/>
  <rect x="1016" y="346" width="308" height="84" rx="28" fill="#0E1A2B"/>
  <rect x="1044" y="374" width="236" height="16" rx="8" fill="#F8FAFC" fill-opacity="0.78"/>
  <rect x="1044" y="404" width="178" height="14" rx="7" fill="#CBD5E1" fill-opacity="0.35"/>
  <rect x="1016" y="454" width="308" height="72" rx="28" fill="#0E1A2B"/>
  <rect x="1044" y="482" width="228" height="16" rx="8" fill="#F8FAFC" fill-opacity="0.78"/>

  <rect x="1016" y="630" width="308" height="120" rx="30" fill="#0E1A2B"/>
  <circle cx="1094" cy="690" r="34" fill="#0F766E"/>
  <rect x="1152" y="664" width="120" height="16" rx="8" fill="#F8FAFC" fill-opacity="0.78"/>
  <rect x="1152" y="694" width="94" height="14" rx="7" fill="#CBD5E1" fill-opacity="0.35"/>
  <rect x="1016" y="778" width="308" height="140" rx="30" fill="#0E1A2B"/>
  <rect x="1044" y="812" width="252" height="16" rx="8" fill="#67E8F9" fill-opacity="0.42"/>
  <rect x="1044" y="852" width="224" height="16" rx="8" fill="#F8FAFC" fill-opacity="0.78"/>
  <rect x="1044" y="884" width="182" height="14" rx="7" fill="#CBD5E1" fill-opacity="0.35"/>

  <defs>
    <linearGradient id="bg" x1="120" y1="42" x2="1518" y2="1042" gradientUnits="userSpaceOnUse">
      <stop stop-color="#E6FFF7"/>
      <stop offset="0.55" stop-color="#EAF4FF"/>
      <stop offset="1" stop-color="#F8FAFC"/>
    </linearGradient>
  </defs>
</svg>
