<svg width="1600" height="1100" viewBox="0 0 1600 1100" fill="none" xmlns="http://www.w3.org/2000/svg">
  <rect width="1600" height="1100" rx="60" fill="#FFF9F0"/>
  <circle cx="1320" cy="180" r="170" fill="#FDE68A" fill-opacity="0.34"/>
  <circle cx="240" cy="940" r="220" fill="#BFDBFE" fill-opacity="0.24"/>
  <rect x="118" y="120" width="1364" height="860" rx="42" fill="#FFFFFF"/>
  <rect x="118" y="120" width="1364" height="860" rx="42" stroke="#F1E6D5" stroke-width="2"/>

  <rect x="172" y="180" width="420" height="736" rx="34" fill="#FFFDF8"/>
  <rect x="172" y="180" width="420" height="736" rx="34" stroke="#F3E8D9" stroke-width="2"/>
  <rect x="212" y="224" width="144" height="18" rx="9" fill="#1F2937" fill-opacity="0.12"/>
  <rect x="212" y="278" width="340" height="132" rx="28" fill="#FFF3E0"/>
  <circle cx="274" cy="344" r="30" fill="#F59E0B" fill-opacity="0.24"/>
  <circle cx="334" cy="344" r="30" fill="#10B981" fill-opacity="0.24"/>
  <circle cx="394" cy="344" r="30" fill="#3B82F6" fill-opacity="0.24"/>
  <rect x="212" y="442" width="340" height="210" rx="28" fill="#F8FAFC"/>
  <rect x="240" y="478" width="118" height="16" rx="8" fill="#0F172A" fill-opacity="0.82"/>
  <rect x="240" y="512" width="216" height="14" rx="7" fill="#CBD5E1"/>
  <rect x="240" y="562" width="282" height="22" rx="11" fill="#FEF3C7"/>
  <rect x="256" y="569" width="74" height="8" rx="4" fill="#B45309"/>
  <rect x="240" y="604" width="282" height="22" rx="11" fill="#DCFCE7"/>
  <rect x="256" y="611" width="96" height="8" rx="4" fill="#047857"/>
  <rect x="240" y="646" width="282" height="22" rx="11" fill="#DBEAFE"/>
  <rect x="256" y="653" width="108" height="8" rx="4" fill="#1D4ED8"/>
  <rect x="212" y="690" width="340" height="186" rx="28" fill="#112238"/>
  <rect x="240" y="726" width="160" height="18" rx="9" fill="#E2E8F0" fill-opacity="0.28"/>
  <rect x="240" y="770" width="284" height="16" rx="8" fill="#F8FAFC" fill-opacity="0.78"/>
  <rect x="240" y="804" width="232" height="14" rx="7" fill="#CBD5E1" fill-opacity="0.42"/>
  <path d="M240 848H430" stroke="#164E63" stroke-width="18" stroke-linecap="round"/>
  <path d="M240 848H356" stroke="#22D3EE" stroke-width="18" stroke-linecap="round"/>

  <rect x="634" y="180" width="794" height="324" rx="34" fill="#0F172A"/>
  <rect x="634" y="180" width="794" height="324" rx="34" stroke="#1E293B" stroke-width="2"/>
  <rect x="676" y="222" width="172" height="18" rx="9" fill="#67E8F9" fill-opacity="0.44"/>
  <circle cx="784" cy="348" r="24" fill="#F8FAFC"/>
  <circle cx="980" cy="276" r="24" fill="#F8FAFC"/>
  <circle cx="1130" cy="380" r="24" fill="#F8FAFC"/>
  <circle cx="1294" cy="304" r="24" fill="#F8FAFC"/>
  <path d="M784 348C860 332 900 272 980 276C1060 280 1064 392 1130 380C1190 368 1228 320 1294 304" stroke="#67E8F9" stroke-width="10" stroke-linecap="round" stroke-dasharray="1 22"/>
  <rect x="734" y="392" width="172" height="64" rx="22" fill="#0B2538"/>
  <rect x="762" y="416" width="96" height="12" rx="6" fill="#F8FAFC" fill-opacity="0.82"/>
  <rect x="762" y="438" width="126" height="10" rx="5" fill="#CBD5E1" fill-opacity="0.42"/>
  <rect x="1052" y="226" width="316" height="68" rx="24" fill="#132238"/>
  <rect x="1080" y="251" width="118" height="16" rx="8" fill="#F8FAFC" fill-opacity="0.82"/>
  <rect x="1218" y="244" width="114" height="28" rx="14" fill="#134E4A"/>

  <rect x="634" y="548" width="372" height="368" rx="34" fill="#F8FAFC"/>
  <rect x="634" y="548" width="372" height="368" rx="34" stroke="#DCE7F3" stroke-width="2"/>
  <rect x="674" y="592" width="126" height="16" rx="8" fill="#0F172A" fill-opacity="0.14"/>
  <rect x="674" y="640" width="292" height="82" rx="24" fill="#FFFFFF"/>
  <rect x="700" y="670" width="122" height="14" rx="7" fill="#0F172A" fill-opacity="0.82"/>
  <rect x="700" y="698" width="178" height="12" rx="6" fill="#CBD5E1"/>
  <rect x="674" y="746" width="292" height="118" rx="24" fill="#ECFDF5"/>
  <rect x="700" y="780" width="144" height="14" rx="7" fill="#065F46"/>
  <rect x="700" y="810" width="198" height="12" rx="6" fill="#6EE7B7"/>
  <rect x="700" y="834" width="122" height="12" rx="6" fill="#A7F3D0"/>

  <rect x="1056" y="548" width="372" height="368" rx="34" fill="#F5FBFF"/>
  <rect x="1056" y="548" width="372" height="368" rx="34" stroke="#D6E8F8" stroke-width="2"/>
  <rect x="1096" y="592" width="138" height="16" rx="8" fill="#0F172A" fill-opacity="0.14"/>
  <rect x="1096" y="642" width="292" height="96" rx="26" fill="#FFFFFF"/>
  <rect x="1124" y="674" width="106" height="14" rx="7" fill="#0F172A" fill-opacity="0.82"/>
  <rect x="1124" y="700" width="188" height="12" rx="6" fill="#CBD5E1"/>
  <rect x="1124" y="724" width="120" height="24" rx="12" fill="#DBEAFE"/>
  <rect x="1148" y="732" width="72" height="8" rx="4" fill="#1D4ED8"/>
  <rect x="1096" y="766" width="292" height="98" rx="26" fill="#0F172A"/>
  <rect x="1124" y="798" width="132" height="14" rx="7" fill="#E2E8F0" fill-opacity="0.28"/>
  <rect x="1124" y="826" width="214" height="12" rx="6" fill="#CBD5E1" fill-opacity="0.34"/>
</svg>
