<svg width="1600" height="1100" viewBox="0 0 1600 1100" fill="none" xmlns="http://www.w3.org/2000/svg">
  <rect width="1600" height="1100" rx="56" fill="url(#bg)"/>
  <rect x="84" y="84" width="1432" height="932" rx="44" fill="#0F172A"/>
  <rect x="84" y="84" width="1432" height="932" rx="44" stroke="rgba(255,255,255,0.08)"/>

  <rect x="128" y="126" width="1344" height="74" rx="26" fill="#16233A"/>
  <rect x="164" y="152" width="198" height="20" rx="10" fill="#E2E8F0" fill-opacity="0.22"/>
  <rect x="1186" y="146" width="110" height="34" rx="17" fill="#134E4A"/>
  <rect x="1314" y="146" width="118" height="34" rx="17" fill="#1E293B"/>

  <rect x="128" y="236" width="420" height="300" rx="34" fill="#132033"/>
  <rect x="588" y="236" width="420" height="300" rx="34" fill="#132033"/>
  <rect x="1048" y="236" width="424" height="300" rx="34" fill="#132033"/>
  <rect x="128" y="576" width="1344" height="396" rx="36" fill="#132033"/>

  <rect x="164" y="274" width="166" height="16" rx="8" fill="#67E8F9" fill-opacity="0.4"/>
  <circle cx="222" cy="392" r="66" fill="#0F766E"/>
  <rect x="316" y="356" width="150" height="20" rx="10" fill="#FFFFFF" fill-opacity="0.86"/>
  <rect x="316" y="394" width="122" height="14" rx="7" fill="#CBD5E1" fill-opacity="0.32"/>

  <rect x="624" y="274" width="154" height="16" rx="8" fill="#67E8F9" fill-opacity="0.4"/>
  <rect x="624" y="340" width="348" height="52" rx="24" fill="#0E1A2B"/>
  <rect x="652" y="358" width="116" height="16" rx="8" fill="#F8FAFC" fill-opacity="0.76"/>
  <rect x="624" y="416" width="348" height="52" rx="24" fill="#0E1A2B"/>
  <rect x="652" y="434" width="186" height="16" rx="8" fill="#F8FAFC" fill-opacity="0.76"/>

  <rect x="1084" y="274" width="168" height="16" rx="8" fill="#67E8F9" fill-opacity="0.4"/>
  <rect x="1084" y="340" width="348" height="152" rx="26" fill="#0E1A2B"/>
  <rect x="1114" y="372" width="288" height="20" rx="10" fill="#FFFFFF" fill-opacity="0.84"/>
  <rect x="1114" y="410" width="218" height="14" rx="7" fill="#CBD5E1" fill-opacity="0.32"/>
  <rect x="1114" y="442" width="178" height="14" rx="7" fill="#CBD5E1" fill-opacity="0.22"/>

  <rect x="172" y="626" width="538" height="306" rx="30" fill="#0E1A2B"/>
  <rect x="742" y="626" width="690" height="132" rx="30" fill="#0E1A2B"/>
  <rect x="742" y="790" width="690" height="142" rx="30" fill="#0E1A2B"/>

  <rect x="208" y="664" width="228" height="20" rx="10" fill="#F8FAFC" fill-opacity="0.84"/>
  <rect x="208" y="704" width="172" height="14" rx="7" fill="#CBD5E1" fill-opacity="0.32"/>
  <rect x="208" y="760" width="464" height="18" rx="9" fill="#67E8F9" fill-opacity="0.3"/>
  <rect x="208" y="796" width="420" height="18" rx="9" fill="#FFFFFF" fill-opacity="0.76"/>
  <rect x="208" y="832" width="276" height="14" rx="7" fill="#CBD5E1" fill-opacity="0.28"/>

  <rect x="778" y="664" width="188" height="16" rx="8" fill="#67E8F9" fill-opacity="0.4"/>
  <rect x="778" y="706" width="606" height="18" rx="9" fill="#FFFFFF" fill-opacity="0.84"/>
  <rect x="778" y="738" width="488" height="14" rx="7" fill="#CBD5E1" fill-opacity="0.3"/>

  <rect x="778" y="828" width="166" height="16" rx="8" fill="#67E8F9" fill-opacity="0.4"/>
  <rect x="778" y="870" width="582" height="18" rx="9" fill="#FFFFFF" fill-opacity="0.84"/>
  <rect x="778" y="902" width="392" height="14" rx="7" fill="#CBD5E1" fill-opacity="0.3"/>

  <defs>
    <linearGradient id="bg" x1="94" y1="44" x2="1500" y2="1058" gradientUnits="userSpaceOnUse">
      <stop stop-color="#ECFEFF"/>
      <stop offset="0.48" stop-color="#EFF6FF"/>
      <stop offset="1" stop-color="#F8FAFC"/>
    </linearGradient>
  </defs>
</svg>
